<?xml version="1.0" encoding="UTF-8" standalone="no"?>
<!-- Created with Inkscape (http://www.inkscape.org/) -->

<svg
   xmlns:dc="http://purl.org/dc/elements/1.1/"
   xmlns:cc="http://creativecommons.org/ns#"
   xmlns:rdf="http://www.w3.org/1999/02/22-rdf-syntax-ns#"
   xmlns:svg="http://www.w3.org/2000/svg"
   xmlns="http://www.w3.org/2000/svg"
   xmlns:sodipodi="http://sodipodi.sourceforge.net/DTD/sodipodi-0.dtd"
   xmlns:inkscape="http://www.inkscape.org/namespaces/inkscape"
   width="210mm"
   height="297mm"
   viewBox="0 0 744.09448819 1052.3622047"
   id="svg2"
   version="1.1"
   inkscape:version="0.91 r13725"
   sodipodi:docname="eqlayer_figure_bz.svg">
  <sodipodi:namedview
     id="base"
     pagecolor="#ffffff"
     bordercolor="#666666"
     borderopacity="1.0"
     inkscape:pageopacity="0.0"
     inkscape:pageshadow="2"
     inkscape:zoom="0.98994949"
     inkscape:cx="249.66291"
     inkscape:cy="622.87175"
     inkscape:document-units="px"
     inkscape:current-layer="g5254"
     showgrid="false"
     showguides="false"
     inkscape:guide-bbox="true"
     inkscape:window-width="1440"
     inkscape:window-height="848"
     inkscape:window-x="0"
     inkscape:window-y="24"
     inkscape:window-maximized="1">
    <sodipodi:guide
       id="guide4140"
       orientation="1,0"
       position="180.81731,557.60422" />
    <sodipodi:guide
       id="guide4144"
       orientation="0,1"
       position="180.81731,557.60422" />
  </sodipodi:namedview>
  <defs
     id="defs4">
    <marker
       inkscape:stockid="Arrow1Lend"
       orient="auto"
       refY="0.0"
       refX="0.0"
       id="marker4746"
       style="overflow:visible;"
       inkscape:isstock="true">
      <path
         id="path4748"
         d="M 0.0,0.0 L 5.0,-5.0 L -12.5,0.0 L 5.0,5.0 L 0.0,0.0 z "
         style="fill-rule:evenodd;stroke:#000000;stroke-width:1pt;stroke-opacity:1;fill:#000000;fill-opacity:1"
         transform="scale(0.8) rotate(180) translate(12.5,0)" />
    </marker>
    <marker
       inkscape:stockid="Arrow1Mend"
       orient="auto"
       refY="0.0"
       refX="0.0"
       id="marker4741"
       style="overflow:visible;"
       inkscape:isstock="true">
      <path
         id="path4492"
         d="M 0.0,0.0 L 5.0,-5.0 L -12.5,0.0 L 5.0,5.0 L 0.0,0.0 z "
         style="fill-rule:evenodd;stroke:#000000;stroke-width:1pt;stroke-opacity:1;fill:#000000;fill-opacity:1"
         transform="scale(0.4) rotate(180) translate(10,0)" />
    </marker>
    <marker
       inkscape:stockid="Arrow1Lend"
       orient="auto"
       refY="0.0"
       refX="0.0"
       id="Arrow1Lend"
       style="overflow:visible;"
       inkscape:isstock="true">
      <path
         id="path4486"
         d="M 0.0,0.0 L 5.0,-5.0 L -12.5,0.0 L 5.0,5.0 L 0.0,0.0 z "
         style="fill-rule:evenodd;stroke:#000000;stroke-width:1pt;stroke-opacity:1;fill:#000000;fill-opacity:1"
         transform="scale(0.8) rotate(180) translate(12.5,0)" />
    </marker>
    <marker
       inkscape:stockid="Arrow2Send"
       orient="auto"
       refY="0.0"
       refX="0.0"
       id="marker14684"
       style="overflow:visible;"
       inkscape:isstock="true">
      <path
         id="path14686"
         style="fill-rule:evenodd;stroke-width:0.625;stroke-linejoin:round;stroke:#000000;stroke-opacity:1;fill:#000000;fill-opacity:1"
         d="M 8.7185878,4.0337352 L -2.2072895,0.016013256 L 8.7185884,-4.0017078 C 6.9730900,-1.6296469 6.9831476,1.6157441 8.7185878,4.0337352 z "
         transform="scale(0.3) rotate(180) translate(-2.3,0)" />
    </marker>
    <marker
       inkscape:collect="always"
       inkscape:isstock="true"
       style="overflow:visible;"
       id="Arrow2Send"
       refX="0.0"
       refY="0.0"
       orient="auto"
       inkscape:stockid="Arrow2Send">
      <path
         transform="scale(0.3) rotate(180) translate(-2.3,0)"
         d="M 8.7185878,4.0337352 L -2.2072895,0.016013256 L 8.7185884,-4.0017078 C 6.9730900,-1.6296469 6.9831476,1.6157441 8.7185878,4.0337352 z "
         style="fill-rule:evenodd;stroke-width:0.625;stroke-linejoin:round;stroke:#000000;stroke-opacity:1;fill:#000000;fill-opacity:1"
         id="path4185" />
    </marker>
    <marker
       inkscape:isstock="true"
       style="overflow:visible"
       id="DiamondSstart"
       refX="0.0"
       refY="0.0"
       orient="auto"
       inkscape:stockid="DiamondSstart">
      <path
         transform="scale(0.2) translate(6,0)"
         style="fill-rule:evenodd;stroke:#000000;stroke-width:1pt;stroke-opacity:1;fill:#000000;fill-opacity:1"
         d="M 0,-7.0710768 L -7.0710894,0 L 0,7.0710589 L 7.0710462,0 L 0,-7.0710768 z "
         id="path4246" />
    </marker>
    <marker
       inkscape:isstock="true"
       style="overflow:visible;"
       id="Arrow1Mend"
       refX="0.0"
       refY="0.0"
       orient="auto"
       inkscape:stockid="Arrow1Mend">
      <path
         transform="scale(0.4) rotate(180) translate(10,0)"
         style="fill-rule:evenodd;stroke:#000000;stroke-width:1pt;stroke-opacity:1;fill:#000000;fill-opacity:1"
         d="M 0.0,0.0 L 5.0,-5.0 L -12.5,0.0 L 5.0,5.0 L 0.0,0.0 z "
         id="path4161" />
    </marker>
    <marker
       inkscape:stockid="Arrow2Lend"
       orient="auto"
       refY="0.0"
       refX="0.0"
       id="marker14422"
       style="overflow:visible;"
       inkscape:isstock="true">
      <path
         id="path14424"
         style="fill-rule:evenodd;stroke-width:0.625;stroke-linejoin:round;stroke:#000000;stroke-opacity:1;fill:#000000;fill-opacity:1"
         d="M 8.7185878,4.0337352 L -2.2072895,0.016013256 L 8.7185884,-4.0017078 C 6.9730900,-1.6296469 6.9831476,1.6157441 8.7185878,4.0337352 z "
         transform="scale(1.1) rotate(180) translate(1,0)" />
    </marker>
    <marker
       inkscape:collect="always"
       inkscape:isstock="true"
       style="overflow:visible;"
       id="marker13858"
       refX="0.0"
       refY="0.0"
       orient="auto"
       inkscape:stockid="Arrow2Lend">
      <path
         transform="scale(1.1) rotate(180) translate(1,0)"
         d="M 8.7185878,4.0337352 L -2.2072895,0.016013256 L 8.7185884,-4.0017078 C 6.9730900,-1.6296469 6.9831476,1.6157441 8.7185878,4.0337352 z "
         style="fill-rule:evenodd;stroke-width:0.625;stroke-linejoin:round;stroke:#000000;stroke-opacity:1;fill:#000000;fill-opacity:1"
         id="path13860" />
    </marker>
    <marker
       inkscape:isstock="true"
       style="overflow:visible;"
       id="marker7148"
       refX="0.0"
       refY="0.0"
       orient="auto"
       inkscape:stockid="Arrow2Lend">
      <path
         transform="scale(1.1) rotate(180) translate(1,0)"
         d="M 8.7185878,4.0337352 L -2.2072895,0.016013256 L 8.7185884,-4.0017078 C 6.9730900,-1.6296469 6.9831476,1.6157441 8.7185878,4.0337352 z "
         style="fill-rule:evenodd;stroke-width:0.625;stroke-linejoin:round;stroke:#000000;stroke-opacity:1;fill:#000000;fill-opacity:1"
         id="path7150" />
    </marker>
    <marker
       inkscape:collect="always"
       inkscape:stockid="Arrow2Lend"
       orient="auto"
       refY="0.0"
       refX="0.0"
       id="marker5432"
       style="overflow:visible;"
       inkscape:isstock="true">
      <path
         id="path5434"
         style="fill-rule:evenodd;stroke-width:0.625;stroke-linejoin:round;stroke:#000000;stroke-opacity:1;fill:#000000;fill-opacity:1"
         d="M 8.7185878,4.0337352 L -2.2072895,0.016013256 L 8.7185884,-4.0017078 C 6.9730900,-1.6296469 6.9831476,1.6157441 8.7185878,4.0337352 z "
         transform="scale(1.1) rotate(180) translate(1,0)" />
    </marker>
    <marker
       inkscape:stockid="Arrow2Lend"
       orient="auto"
       refY="0.0"
       refX="0.0"
       id="marker4430"
       style="overflow:visible;"
       inkscape:isstock="true">
      <path
         id="path4432"
         style="fill-rule:evenodd;stroke-width:0.625;stroke-linejoin:round;stroke:#000000;stroke-opacity:1;fill:#000000;fill-opacity:1"
         d="M 8.7185878,4.0337352 L -2.2072895,0.016013256 L 8.7185884,-4.0017078 C 6.9730900,-1.6296469 6.9831476,1.6157441 8.7185878,4.0337352 z "
         transform="scale(1.1) rotate(180) translate(1,0)" />
    </marker>
    <marker
       inkscape:collect="always"
       inkscape:isstock="true"
       style="overflow:visible;"
       id="Arrow2Lend"
       refX="0.0"
       refY="0.0"
       orient="auto"
       inkscape:stockid="Arrow2Lend">
      <path
         transform="scale(1.1) rotate(180) translate(1,0)"
         d="M 8.7185878,4.0337352 L -2.2072895,0.016013256 L 8.7185884,-4.0017078 C 6.9730900,-1.6296469 6.9831476,1.6157441 8.7185878,4.0337352 z "
         style="fill-rule:evenodd;stroke-width:0.625;stroke-linejoin:round;stroke:#000000;stroke-opacity:1;fill:#000000;fill-opacity:1"
         id="path4173" />
    </marker>
  </defs>
  <metadata
     id="metadata7">
    <rdf:RDF>
      <cc:Work
         rdf:about="">
        <dc:format>image/svg+xml</dc:format>
        <dc:type
           rdf:resource="http://purl.org/dc/dcmitype/StillImage" />
        <dc:title></dc:title>
      </cc:Work>
    </rdf:RDF>
  </metadata>
  <g
     id="layer1"
     inkscape:groupmode="layer"
     inkscape:label="Layer 1">
    <text
       xml:space="preserve"
       style="font-style:normal;font-weight:normal;font-size:30px;line-height:125%;font-family:sans-serif;letter-spacing:0px;word-spacing:0px;fill:#000000;fill-opacity:1;stroke:none;stroke-width:1px;stroke-linecap:butt;stroke-linejoin:miter;stroke-opacity:1"
       x="426.84326"
       y="376.63049"
       id="text7912"
       sodipodi:linespacing="125%"><tspan
         sodipodi:role="line"
         id="tspan7914"
         x="426.84326"
         y="376.63049"
         style="font-style:normal;font-variant:normal;font-weight:normal;font-stretch:normal;font-family:ubuntu;-inkscape-font-specification:ubuntu" /></text>
    <g
       id="g5254">
      <path
         style="fill:none;fill-rule:evenodd;stroke:#000000;stroke-width:1px;stroke-linecap:butt;stroke-linejoin:miter;stroke-opacity:1;marker-end:url(#Arrow2Lend)"
         d="M 83.80716,493.76815 C 304.02041,282.64627 304.02041,282.64627 304.02041,282.64627"
         id="path4146"
         inkscape:connector-curvature="0" />
      <path
         inkscape:connector-curvature="0"
         id="path4428"
         d="m 81.90903,495.04233 c 299.47174,-1.47682 299.47174,-1.47682 299.47174,-1.47682"
         style="fill:none;fill-rule:evenodd;stroke:#000000;stroke-width:0.0975332px;stroke-linecap:butt;stroke-linejoin:miter;stroke-opacity:1;marker-end:url(#marker4430)" />
      <path
         inkscape:connector-curvature="0"
         id="path5430"
         d="m 82.85373,494.24341 c 305.0676,0.2931 305.0676,0.2931 305.0676,0.2931"
         style="fill:none;fill-rule:evenodd;stroke:#000000;stroke-width:1px;stroke-linecap:butt;stroke-linejoin:miter;stroke-opacity:1;marker-end:url(#marker5432)"
         inkscape:transform-center-x="-150.09822"
         inkscape:transform-center-y="0.594375" />
      <path
         inkscape:transform-center-y="150.09846"
         inkscape:transform-center-x="0.532325"
         style="fill:none;fill-rule:evenodd;stroke:#000000;stroke-width:1px;stroke-linecap:butt;stroke-linejoin:miter;stroke-opacity:1;marker-end:url(#marker7148)"
         d="m 83.55477,493.21734 c -0.16699,305.0677 -0.16699,305.0677 -0.16699,305.0677"
         id="path7146"
         inkscape:connector-curvature="0" />
      <text
         xml:space="preserve"
         style="font-style:normal;font-weight:normal;font-size:30px;line-height:125%;font-family:sans-serif;letter-spacing:0px;word-spacing:0px;fill:#000000;fill-opacity:1;stroke:none;stroke-width:1px;stroke-linecap:butt;stroke-linejoin:miter;stroke-opacity:1"
         x="59.583794"
         y="796.79364"
         id="text7704"
         sodipodi:linespacing="125%"><tspan
           sodipodi:role="line"
           id="tspan7706"
           x="59.583794"
           y="796.79364"
           style="font-style:normal;font-variant:normal;font-weight:normal;font-stretch:normal;font-family:ubuntu;-inkscape-font-specification:ubuntu">z</tspan></text>
      <text
         xml:space="preserve"
         style="font-style:normal;font-weight:normal;font-size:30px;line-height:125%;font-family:sans-serif;letter-spacing:0px;word-spacing:0px;fill:#000000;fill-opacity:1;stroke:none;stroke-width:1px;stroke-linecap:butt;stroke-linejoin:miter;stroke-opacity:1"
         x="278.84326"
         y="282.34479"
         id="text7704-3"
         sodipodi:linespacing="125%"><tspan
           sodipodi:role="line"
           id="tspan7706-6"
           x="278.84326"
           y="282.34479"
           style="font-style:normal;font-variant:normal;font-weight:normal;font-stretch:normal;font-family:ubuntu;-inkscape-font-specification:ubuntu">x</tspan></text>
      <text
         xml:space="preserve"
         style="font-style:normal;font-weight:normal;font-size:30px;line-height:125%;font-family:sans-serif;letter-spacing:0px;word-spacing:0px;fill:#000000;fill-opacity:1;stroke:none;stroke-width:1px;stroke-linecap:butt;stroke-linejoin:miter;stroke-opacity:1"
         x="374.78748"
         y="522.74072"
         id="text7704-3-7"
         sodipodi:linespacing="125%"><tspan
           sodipodi:role="line"
           id="tspan7706-6-5"
           x="374.78748"
           y="522.74072"
           style="font-style:normal;font-variant:normal;font-weight:normal;font-stretch:normal;font-family:ubuntu;-inkscape-font-specification:ubuntu">y</tspan></text>
      <rect
         style="opacity:0.2;fill:#000000;fill-opacity:0.94767438;stroke:#000000;stroke-width:0.52723414;stroke-miterlimit:4;stroke-dasharray:none;stroke-dashoffset:0;stroke-opacity:1"
         id="rect7792"
         width="227.1405"
         height="244.51804"
         x="893.59351"
         y="863.57544"
         rx="0"
         ry="0"
         transform="matrix(0.99999482,-0.0032193,-0.73164565,0.68168515,0,0)" />
      <ellipse
         style="opacity:0.781;fill:#000000;fill-opacity:0.94767438;stroke:#000000;stroke-width:0.20496748;stroke-miterlimit:4;stroke-dasharray:none;stroke-dashoffset:0;stroke-opacity:1"
         id="path7794"
         cx="118.92088"
         cy="737.83087"
         rx="12.227346"
         ry="10.712117" />
      <ellipse
         ry="10.712117"
         rx="12.227346"
         cy="737.83087"
         cx="154.9209"
         id="ellipse7804"
         style="opacity:0.781;fill:#000000;fill-opacity:0.94767438;stroke:#000000;stroke-width:0.20496748;stroke-miterlimit:4;stroke-dasharray:none;stroke-dashoffset:0;stroke-opacity:1" />
      <ellipse
         style="opacity:0.781;fill:#000000;fill-opacity:0.94767438;stroke:#000000;stroke-width:0.20496748;stroke-miterlimit:4;stroke-dasharray:none;stroke-dashoffset:0;stroke-opacity:1"
         id="ellipse7806"
         cx="190.9209"
         cy="737.83087"
         rx="12.227346"
         ry="10.712117" />
      <ellipse
         ry="10.712117"
         rx="12.227346"
         cy="737.83087"
         cx="224.9209"
         id="ellipse7808"
         style="opacity:0.781;fill:#000000;fill-opacity:0.94767438;stroke:#000000;stroke-width:0.20496748;stroke-miterlimit:4;stroke-dasharray:none;stroke-dashoffset:0;stroke-opacity:1" />
      <ellipse
         style="opacity:0.781;fill:#000000;fill-opacity:0.94767438;stroke:#000000;stroke-width:0.20496748;stroke-miterlimit:4;stroke-dasharray:none;stroke-dashoffset:0;stroke-opacity:1"
         id="ellipse7810"
         cx="260.9209"
         cy="737.83087"
         rx="12.227346"
         ry="10.712117" />
      <ellipse
         ry="10.712117"
         rx="12.227346"
         cy="737.83087"
         cx="296.9209"
         id="ellipse7812"
         style="opacity:0.781;fill:#000000;fill-opacity:0.94767438;stroke:#000000;stroke-width:0.20496748;stroke-miterlimit:4;stroke-dasharray:none;stroke-dashoffset:0;stroke-opacity:1" />
      <ellipse
         ry="10.712117"
         rx="12.227346"
         cy="709.83087"
         cx="148.92088"
         id="ellipse7814"
         style="opacity:0.781;fill:#000000;fill-opacity:0.94767438;stroke:#000000;stroke-width:0.20496748;stroke-miterlimit:4;stroke-dasharray:none;stroke-dashoffset:0;stroke-opacity:1" />
      <ellipse
         style="opacity:0.781;fill:#000000;fill-opacity:0.94767438;stroke:#000000;stroke-width:0.20496748;stroke-miterlimit:4;stroke-dasharray:none;stroke-dashoffset:0;stroke-opacity:1"
         id="ellipse7816"
         cx="184.9209"
         cy="709.83087"
         rx="12.227346"
         ry="10.712117" />
      <ellipse
         ry="10.712117"
         rx="12.227346"
         cy="709.83087"
         cx="220.9209"
         id="ellipse7818"
         style="opacity:0.781;fill:#000000;fill-opacity:0.94767438;stroke:#000000;stroke-width:0.20496748;stroke-miterlimit:4;stroke-dasharray:none;stroke-dashoffset:0;stroke-opacity:1" />
      <ellipse
         style="opacity:0.781;fill:#000000;fill-opacity:0.94767438;stroke:#000000;stroke-width:0.20496748;stroke-miterlimit:4;stroke-dasharray:none;stroke-dashoffset:0;stroke-opacity:1"
         id="ellipse7820"
         cx="254.9209"
         cy="709.83087"
         rx="12.227346"
         ry="10.712117" />
      <ellipse
         ry="10.712117"
         rx="12.227346"
         cy="709.83087"
         cx="290.9209"
         id="ellipse7822"
         style="opacity:0.781;fill:#000000;fill-opacity:0.94767438;stroke:#000000;stroke-width:0.20496748;stroke-miterlimit:4;stroke-dasharray:none;stroke-dashoffset:0;stroke-opacity:1" />
      <ellipse
         style="opacity:0.781;fill:#000000;fill-opacity:0.94767438;stroke:#000000;stroke-width:0.20496748;stroke-miterlimit:4;stroke-dasharray:none;stroke-dashoffset:0;stroke-opacity:1"
         id="ellipse7824"
         cx="326.9209"
         cy="709.83087"
         rx="12.227346"
         ry="10.712117" />
      <ellipse
         style="opacity:0.781;fill:#000000;fill-opacity:0.94767438;stroke:#000000;stroke-width:0.20496748;stroke-miterlimit:4;stroke-dasharray:none;stroke-dashoffset:0;stroke-opacity:1"
         id="ellipse7826"
         cx="180.9209"
         cy="681.83093"
         rx="12.227346"
         ry="10.712117" />
      <ellipse
         ry="10.712117"
         rx="12.227346"
         cy="681.83093"
         cx="216.9209"
         id="ellipse7828"
         style="opacity:0.781;fill:#000000;fill-opacity:0.94767438;stroke:#000000;stroke-width:0.20496748;stroke-miterlimit:4;stroke-dasharray:none;stroke-dashoffset:0;stroke-opacity:1" />
      <ellipse
         style="opacity:0.781;fill:#000000;fill-opacity:0.94767438;stroke:#000000;stroke-width:0.20496748;stroke-miterlimit:4;stroke-dasharray:none;stroke-dashoffset:0;stroke-opacity:1"
         id="ellipse7830"
         cx="252.9209"
         cy="681.83093"
         rx="12.227346"
         ry="10.712117" />
      <ellipse
         ry="10.712117"
         rx="12.227346"
         cy="681.83093"
         cx="286.9209"
         id="ellipse7832"
         style="opacity:0.781;fill:#000000;fill-opacity:0.94767438;stroke:#000000;stroke-width:0.20496748;stroke-miterlimit:4;stroke-dasharray:none;stroke-dashoffset:0;stroke-opacity:1" />
      <ellipse
         style="opacity:0.781;fill:#000000;fill-opacity:0.94767438;stroke:#000000;stroke-width:0.20496748;stroke-miterlimit:4;stroke-dasharray:none;stroke-dashoffset:0;stroke-opacity:1"
         id="ellipse7834"
         cx="322.9209"
         cy="681.83093"
         rx="12.227346"
         ry="10.712117" />
      <ellipse
         ry="10.712117"
         rx="12.227346"
         cy="681.83093"
         cx="358.9209"
         id="ellipse7836"
         style="opacity:0.781;fill:#000000;fill-opacity:0.94767438;stroke:#000000;stroke-width:0.20496748;stroke-miterlimit:4;stroke-dasharray:none;stroke-dashoffset:0;stroke-opacity:1" />
      <ellipse
         ry="10.712117"
         rx="12.227346"
         cy="653.83093"
         cx="210.9209"
         id="ellipse7838"
         style="opacity:0.781;fill:#000000;fill-opacity:0.94767438;stroke:#000000;stroke-width:0.20496748;stroke-miterlimit:4;stroke-dasharray:none;stroke-dashoffset:0;stroke-opacity:1" />
      <ellipse
         style="opacity:0.781;fill:#000000;fill-opacity:0.94767438;stroke:#000000;stroke-width:0.20496748;stroke-miterlimit:4;stroke-dasharray:none;stroke-dashoffset:0;stroke-opacity:1"
         id="ellipse7840"
         cx="246.9209"
         cy="653.83093"
         rx="12.227346"
         ry="10.712117" />
      <ellipse
         ry="10.712117"
         rx="12.227346"
         cy="653.83093"
         cx="282.9209"
         id="ellipse7842"
         style="opacity:0.781;fill:#000000;fill-opacity:0.94767438;stroke:#000000;stroke-width:0.20496748;stroke-miterlimit:4;stroke-dasharray:none;stroke-dashoffset:0;stroke-opacity:1" />
      <ellipse
         style="opacity:0.781;fill:#000000;fill-opacity:0.94767438;stroke:#000000;stroke-width:0.20496748;stroke-miterlimit:4;stroke-dasharray:none;stroke-dashoffset:0;stroke-opacity:1"
         id="ellipse7844"
         cx="316.9209"
         cy="653.83093"
         rx="12.227346"
         ry="10.712117" />
      <ellipse
         ry="10.712117"
         rx="12.227346"
         cy="653.83093"
         cx="352.9209"
         id="ellipse7846"
         style="opacity:0.781;fill:#000000;fill-opacity:0.94767438;stroke:#000000;stroke-width:0.20496748;stroke-miterlimit:4;stroke-dasharray:none;stroke-dashoffset:0;stroke-opacity:1" />
      <ellipse
         style="opacity:0.781;fill:#000000;fill-opacity:0.94767438;stroke:#000000;stroke-width:0.20496748;stroke-miterlimit:4;stroke-dasharray:none;stroke-dashoffset:0;stroke-opacity:1"
         id="ellipse7848"
         cx="388.9209"
         cy="653.83093"
         rx="12.227346"
         ry="10.712117" />
      <ellipse
         ry="10.712117"
         rx="12.227346"
         cy="625.505"
         cx="242.28571"
         id="ellipse7838-3"
         style="opacity:0.781;fill:#000000;fill-opacity:0.94767438;stroke:#000000;stroke-width:0.20496748;stroke-miterlimit:4;stroke-dasharray:none;stroke-dashoffset:0;stroke-opacity:1" />
      <ellipse
         style="opacity:0.781;fill:#000000;fill-opacity:0.94767438;stroke:#000000;stroke-width:0.20496748;stroke-miterlimit:4;stroke-dasharray:none;stroke-dashoffset:0;stroke-opacity:1"
         id="ellipse7840-5"
         cx="278.28571"
         cy="625.505"
         rx="12.227346"
         ry="10.712117" />
      <ellipse
         ry="10.712117"
         rx="12.227346"
         cy="625.505"
         cx="314.28571"
         id="ellipse7842-6"
         style="opacity:0.781;fill:#000000;fill-opacity:0.94767438;stroke:#000000;stroke-width:0.20496748;stroke-miterlimit:4;stroke-dasharray:none;stroke-dashoffset:0;stroke-opacity:1" />
      <ellipse
         style="opacity:0.781;fill:#000000;fill-opacity:0.94767438;stroke:#000000;stroke-width:0.20496748;stroke-miterlimit:4;stroke-dasharray:none;stroke-dashoffset:0;stroke-opacity:1"
         id="ellipse7844-2"
         cx="348.28571"
         cy="625.505"
         rx="12.227346"
         ry="10.712117" />
      <ellipse
         ry="10.712117"
         rx="12.227346"
         cy="625.505"
         cx="384.28571"
         id="ellipse7846-9"
         style="opacity:0.781;fill:#000000;fill-opacity:0.94767438;stroke:#000000;stroke-width:0.20496748;stroke-miterlimit:4;stroke-dasharray:none;stroke-dashoffset:0;stroke-opacity:1" />
      <ellipse
         style="opacity:0.781;fill:#000000;fill-opacity:0.94767438;stroke:#000000;stroke-width:0.20496748;stroke-miterlimit:4;stroke-dasharray:none;stroke-dashoffset:0;stroke-opacity:1"
         id="ellipse7848-1"
         cx="420.28571"
         cy="625.505"
         rx="12.227346"
         ry="10.712117" />
      <ellipse
         style="opacity:0.781;fill:#000000;fill-opacity:0.94767438;stroke:#000000;stroke-width:0.20496748;stroke-miterlimit:4;stroke-dasharray:none;stroke-dashoffset:0;stroke-opacity:1"
         id="ellipse7898"
         cx="272.28571"
         cy="599.505"
         rx="12.227346"
         ry="10.712117" />
      <ellipse
         ry="10.712117"
         rx="12.227346"
         cy="599.505"
         cx="308.28571"
         id="ellipse7900"
         style="opacity:0.781;fill:#000000;fill-opacity:0.94767438;stroke:#000000;stroke-width:0.20496748;stroke-miterlimit:4;stroke-dasharray:none;stroke-dashoffset:0;stroke-opacity:1" />
      <ellipse
         style="opacity:0.781;fill:#000000;fill-opacity:0.94767438;stroke:#000000;stroke-width:0.20496748;stroke-miterlimit:4;stroke-dasharray:none;stroke-dashoffset:0;stroke-opacity:1"
         id="ellipse7902"
         cx="344.28571"
         cy="599.505"
         rx="12.227346"
         ry="10.712117" />
      <ellipse
         ry="10.712117"
         rx="12.227346"
         cy="599.505"
         cx="378.28571"
         id="ellipse7904"
         style="opacity:0.781;fill:#000000;fill-opacity:0.94767438;stroke:#000000;stroke-width:0.20496748;stroke-miterlimit:4;stroke-dasharray:none;stroke-dashoffset:0;stroke-opacity:1" />
      <ellipse
         style="opacity:0.781;fill:#000000;fill-opacity:0.94767438;stroke:#000000;stroke-width:0.20496748;stroke-miterlimit:4;stroke-dasharray:none;stroke-dashoffset:0;stroke-opacity:1"
         id="ellipse7906"
         cx="414.28571"
         cy="599.505"
         rx="12.227346"
         ry="10.712117" />
      <ellipse
         ry="10.712117"
         rx="12.227346"
         cy="599.505"
         cx="450.28571"
         id="ellipse7908"
         style="opacity:0.781;fill:#000000;fill-opacity:0.94767438;stroke:#000000;stroke-width:0.20496748;stroke-miterlimit:4;stroke-dasharray:none;stroke-dashoffset:0;stroke-opacity:1" />
      <circle
         style="opacity:0.781;fill:#000000;fill-opacity:0.94767438;stroke:#000000;stroke-width:0.41600001;stroke-miterlimit:4;stroke-dasharray:none;stroke-dashoffset:0;stroke-opacity:1"
         id="path7910"
         cx="318.28571"
         cy="378.07648"
         r="2.8571429" />
      <path
         style="fill:none;fill-rule:evenodd;stroke:#000000;stroke-width:0.69099998;stroke-linecap:butt;stroke-linejoin:miter;stroke-miterlimit:4;stroke-dasharray:none;stroke-opacity:1;marker-end:url(#marker13858)"
         d="m 164.01057,777.62796 c -40.07187,-9.41199 37.68413,-14.2733 -1.10611,-29.54098"
         id="path13850"
         inkscape:connector-curvature="0"
         sodipodi:nodetypes="cc" />
      <text
         xml:space="preserve"
         style="font-style:normal;font-weight:normal;font-size:30px;line-height:125%;font-family:sans-serif;letter-spacing:0px;word-spacing:0px;fill:#000000;fill-opacity:1;stroke:none;stroke-width:1px;stroke-linecap:butt;stroke-linejoin:miter;stroke-opacity:1"
         x="164.85715"
         y="784.50507"
         id="text14396"
         sodipodi:linespacing="125%"><tspan
           sodipodi:role="line"
           id="tspan14398"
           x="164.85715"
           y="784.50507"
           style="font-style:normal;font-variant:normal;font-weight:normal;font-stretch:normal;font-size:25px;font-family:ubuntu;-inkscape-font-specification:ubuntu">p<tspan
   style="font-size:64.99999762%;baseline-shift:sub"
   id="tspan14400">j</tspan></tspan></text>
      <path
         style="fill:none;fill-rule:evenodd;stroke:#000000;stroke-width:1px;stroke-linecap:butt;stroke-linejoin:miter;stroke-opacity:1"
         d="m 78.16565,752.47317 c 10.2278,-0.25254 10.6066,-0.25254 10.6066,-0.25254"
         id="path14404"
         inkscape:connector-curvature="0" />
      <text
         sodipodi:linespacing="125%"
         id="text14406"
         y="757.73602"
         x="58.538589"
         style="font-style:normal;font-weight:normal;font-size:30px;line-height:125%;font-family:sans-serif;letter-spacing:0px;word-spacing:0px;fill:#000000;fill-opacity:1;stroke:none;stroke-width:1px;stroke-linecap:butt;stroke-linejoin:miter;stroke-opacity:1"
         xml:space="preserve"><tspan
           style="font-style:normal;font-variant:normal;font-weight:normal;font-stretch:normal;font-size:25px;font-family:ubuntu;-inkscape-font-specification:ubuntu"
           y="757.73602"
           x="58.538589"
           id="tspan14408"
           sodipodi:role="line">z<tspan
   style="font-size:64.99999762%;baseline-shift:sub"
   id="tspan14412">c</tspan></tspan></text>
      <path
         style="fill:none;fill-rule:evenodd;stroke:#000000;stroke-width:6.5999999;stroke-linecap:butt;stroke-linejoin:miter;stroke-miterlimit:4;stroke-dasharray:none;stroke-opacity:1;marker-end:url(#Arrow2Send)"
         d="m 407.07627,657.33218 c 48.48732,0.0779 49.49748,0.12166 49.49748,0.12166"
         id="path14414"
         inkscape:connector-curvature="0" />
      <ellipse
         style="opacity:1;fill:none;fill-opacity:0.94767438;stroke:#000000;stroke-width:2.44532704;stroke-miterlimit:4;stroke-dasharray:none;stroke-dashoffset:0;stroke-opacity:1"
         id="path14666"
         cx="521.28571"
         cy="659.86218"
         rx="50.491619"
         ry="49.063049" />
      <path
         style="fill:none;fill-rule:evenodd;stroke:#000000;stroke-width:1.71899998;stroke-linecap:butt;stroke-linejoin:miter;stroke-miterlimit:4;stroke-dasharray:none;stroke-opacity:1"
         d="m 470.21603,659.36692 c 22.57977,8.52253 70.90884,7.28573 101.78519,0.71318"
         id="path14672"
         inkscape:connector-curvature="0"
         sodipodi:nodetypes="cc" />
      <path
         sodipodi:nodetypes="cc"
         inkscape:connector-curvature="0"
         id="path14674"
         d="m 470.22476,657.73624 c 22.57589,-8.85501 70.89666,-7.56996 101.76771,-0.741"
         style="fill:none;fill-rule:evenodd;stroke:#000000;stroke-width:1.7520597;stroke-linecap:butt;stroke-linejoin:miter;stroke-miterlimit:4;stroke-dasharray:10.51235819, 1.7520597;stroke-dashoffset:0;stroke-opacity:1" />
      <path
         inkscape:connector-curvature="0"
         id="path14682"
         d="m 504.79022,681.71438 c 25.95813,-40.95365 26.53455,-41.78436 26.53455,-41.78436"
         style="fill:none;fill-rule:evenodd;stroke:#000000;stroke-width:6.5999999;stroke-linecap:butt;stroke-linejoin:miter;stroke-miterlimit:4;stroke-dasharray:none;stroke-opacity:1;marker-end:url(#marker14684)" />
      <text
         sodipodi:linespacing="125%"
         id="text15972"
         y="599.80023"
         x="505.0827"
         style="font-style:normal;font-weight:normal;font-size:30px;line-height:125%;font-family:sans-serif;letter-spacing:0px;word-spacing:0px;fill:#000000;fill-opacity:1;stroke:none;stroke-width:1px;stroke-linecap:butt;stroke-linejoin:miter;stroke-opacity:1"
         xml:space="preserve"><tspan
           style="font-style:normal;font-variant:normal;font-weight:normal;font-stretch:normal;font-family:ubuntu;-inkscape-font-specification:ubuntu"
           y="599.80023"
           x="505.0827"
           id="tspan15974"
           sodipodi:role="line">v</tspan></text>
      <g
         transform="matrix(0.46193535,0,0,0.4467285,85.161799,480.67053)"
         id="g3562">
        <g
           style="font-style:normal;font-variant:normal;font-weight:normal;font-stretch:normal;letter-spacing:normal;word-spacing:normal;text-anchor:start;fill:none;fill-opacity:1;fill-rule:evenodd;stroke:#000000;stroke-linecap:butt;stroke-linejoin:miter;stroke-miterlimit:10.43299961;stroke-dasharray:none;stroke-dashoffset:0;stroke-opacity:1"
           id="g3564"
           transform="matrix(1.0629921,0,0,-1.0629921,-186.02362,789.27165)"
           xml:space="preserve"
           stroke-miterlimit="10.433"
           font-style="normal"
           font-variant="normal"
           font-weight="normal"
           font-stretch="normal"
           font-size-adjust="none"
           letter-spacing="normal"
           word-spacing="normal"><polygon
             style="fill:#000000;stroke-width:0"
             points="1205.6,379.14 1211.3,374.07 1212.2,374.96 1205.6,381.74 1198.9,374.96 1199.8,374.07 "
             id="polygon3566" /><path
             style="fill:#000000;stroke-width:0"
             inkscape:connector-curvature="0"
             d="m 1187.4,364.18 0,-15.39 -3.4,0 0,-2.35 c 1.4,0.05 4.4,0.16 6.3,0.16 1.9,0 4.9,-0.11 6.3,-0.16 l 0,2.35 -3.5,0 0,10.4 c 0,5.44 4.3,7.88 7.4,7.88 1.7,0 2.8,-1 2.8,-4.83 l 0,-13.45 -3.4,0 0,-2.35 c 1.4,0.05 4.4,0.16 6.3,0.16 1.9,0 4.9,-0.11 6.2,-0.16 l 0,2.35 -3.4,0 0,10.4 c 0,5.44 4.4,7.88 7.4,7.88 1.7,0 2.8,-1 2.8,-4.83 l 0,-13.45 -3.4,0 0,-2.35 c 1.4,0.05 4.4,0.16 6.3,0.16 1.9,0 4.8,-0.11 6.2,-0.16 l 0,2.35 -3.4,0 0,12.9 c 0,5.13 -2.5,7.17 -7.7,7.17 -4.5,0 -7.1,-2.5 -8.4,-4.78 -1,4.63 -5.6,4.78 -7.5,4.78 -4.3,0 -7.1,-2.25 -8.7,-5.39 l 0,5.39 -8.6,-0.4 0,-2.35 c 3.1,0 3.4,0 3.4,-1.93 z"
             id="path3568" /><path
             style="fill:#000000;stroke-width:0"
             inkscape:connector-curvature="0"
             d="m 1246,334.49 0,0.02 0,0.03 0,0.01 0,0.02 0,0.01 0,0.02 0,0.02 0,0.01 0,0.02 0,0.02 -0.1,0.03 0,0.02 0,0.02 0,0.03 0,0.03 0,0.03 -0.1,0.04 0,0.03 0,0.02 0,0.02 -0.1,0.02 0,0.02 0,0.02 0,0.03 0,0.02 -0.1,0.02 0,0.03 0,0.03 0,0.02 -0.1,0.03 0,0.03 0,0.03 0,0.03 -0.1,0.03 0,0.03 0,0.03 -0.1,0.04 0,0.03 0,0.04 -0.1,0.04 0,0.03 0,0.04 c -6.3,6.28 -7.9,15.69 -7.9,23.31 0,8.68 1.9,17.35 8.1,23.57 0.6,0.61 0.6,0.7 0.6,0.86 0,0.34 -0.2,0.48 -0.5,0.48 -0.5,0 -5,-3.37 -7.9,-9.7 -2.5,-5.49 -3.1,-11.02 -3.1,-15.21 0,-3.89 0.5,-9.9 3.2,-15.54 3,-6.13 7.3,-9.36 7.8,-9.36 0.3,0 0.5,0.14 0.5,0.5 z"
             id="path3570" /><path
             style="fill:#000000;stroke-width:0"
             inkscape:connector-curvature="0"
             d="m 1270.7,364.93 -0.2,0.22 -0.2,0.22 -0.2,0.22 -0.1,0.2 -0.2,0.21 -0.2,0.19 -0.2,0.19 -0.2,0.19 -0.2,0.18 -0.3,0.17 -0.2,0.16 -0.2,0.16 -0.2,0.15 -0.3,0.15 -0.2,0.14 -0.2,0.13 -0.3,0.12 -0.2,0.12 -0.3,0.11 -0.2,0.1 -0.3,0.09 -0.3,0.09 -0.2,0.08 -0.3,0.07 -0.2,0.06 -0.3,0.06 -0.3,0.05 -0.3,0.03 -0.2,0.03 -0.3,0.03 -0.3,0.01 -0.3,0 c -7.2,0 -12.4,-4.43 -12.4,-11.36 0,-7.03 5.1,-11.36 12,-11.36 l 0.5,1.8 c -3.1,0 -6.1,2.89 -6.1,9.52 0,7.06 3.7,9.4 6.7,9.4 3.8,0 6.2,-3.93 6.2,-6.42 l 0,-6.92 c 0,-0.91 0,-1.05 -0.8,-2.09 -2,-2.94 -4.5,-3.49 -6,-3.49 l -0.5,-1.8 c 2.4,0 4.7,0.71 7,2.69 l 0,-9.72 -3.5,0 0,-2.34 c 1.4,0.06 4.4,0.16 6.3,0.16 1.9,0 4.9,-0.1 6.3,-0.16 l 0,2.34 -3.5,0 0,29.75 -2,0 z"
             id="path3572" /><path
             style="fill:#000000;stroke-width:0"
             inkscape:connector-curvature="0"
             d="m 1293.5,358.89 0,0.38 0,0.38 -0.1,0.39 0,0.41 0,0.84 -0.1,0.88 0,0.92 -0.2,0.95 -0.1,0.98 -0.2,1 -0.1,1.02 -0.3,1.04 -0.2,1.05 -0.4,1.06 -0.3,1.06 -0.4,1.07 -0.2,0.53 -0.2,0.53 -0.3,0.53 -0.2,0.53 c -3,6.13 -7.3,9.36 -7.8,9.36 -0.3,0 -0.5,-0.19 -0.5,-0.48 0,-0.16 0,-0.25 1,-1.16 4.9,-4.92 7.7,-12.84 7.7,-23.27 0,-8.51 -1.8,-17.28 -8,-23.56 -0.7,-0.59 -0.7,-0.7 -0.7,-0.84 0,-0.3 0.2,-0.5 0.5,-0.5 0.5,0 5,3.39 7.9,9.72 2.6,5.47 3.2,11 3.2,15.18 z"
             id="path3574" /></g>      </g>
      <g
         id="g3552"
         transform="matrix(0.61116231,0,0,0.65906789,146.10601,142.88014)">
        <g
           word-spacing="normal"
           letter-spacing="normal"
           font-size-adjust="none"
           font-stretch="normal"
           font-weight="normal"
           font-variant="normal"
           font-style="normal"
           stroke-miterlimit="10.433"
           xml:space="preserve"
           transform="matrix(1.0629921,0,0,-1.0629921,-186.02362,789.27165)"
           id="content"
           style="font-style:normal;font-variant:normal;font-weight:normal;font-stretch:normal;letter-spacing:normal;word-spacing:normal;text-anchor:start;fill:none;fill-opacity:1;fill-rule:evenodd;stroke:#000000;stroke-linecap:butt;stroke-linejoin:miter;stroke-miterlimit:10.43299961;stroke-dasharray:none;stroke-dashoffset:0;stroke-opacity:1"><path
             id="path3555"
             d="m 463.49,410.09 -0.05,-0.18 -0.04,-0.17 -0.05,-0.16 -0.04,-0.15 -0.04,-0.15 -0.05,-0.13 -0.05,-0.13 -0.05,-0.12 -0.05,-0.11 -0.06,-0.11 -0.07,-0.1 -0.07,-0.09 -0.07,-0.09 -0.09,-0.07 -0.09,-0.08 -0.11,-0.06 -0.11,-0.07 -0.13,-0.05 -0.13,-0.05 -0.15,-0.05 -0.16,-0.04 -0.09,-0.02 -0.09,-0.01 -0.09,-0.02 -0.1,-0.02 -0.1,-0.01 -0.1,-0.01 -0.11,-0.01 -0.12,-0.02 -0.11,-0.01 -0.13,-0.01 -0.12,0 -0.13,-0.01 -0.14,-0.01 -0.14,0 -0.14,-0.01 -0.15,0 -0.16,-0.01 -0.16,0 -0.16,0 -0.17,0 -0.18,0 -0.18,0 c -0.85,0 -1.35,0 -1.35,-1 0,-0.55 0.46,-0.55 1.35,-0.55 l 17.78,0 c 7.87,0 13.75,5.87 13.75,10.76 0,3.58 -2.89,6.47 -7.72,7.02 5.19,0.95 10.42,4.64 10.42,9.38 0,3.68 -3.3,6.87 -9.28,6.87 l -0.69,-1.55 c 4.38,0 5.42,-2.93 5.42,-5.12 0,-4.39 -4.28,-9.13 -10.35,-9.13 l -7.27,0 -0.3,-1.09 9.41,0 c 4.78,0 5.73,-3.69 5.73,-5.83 0,-4.94 -4.43,-9.76 -10.31,-9.76 l -6.78,0 c -0.69,0 -0.8,0 -1.09,0.04 -0.5,0.05 -0.64,0.1 -0.64,0.5 0,0.14 0,0.25 0.25,1.14 l 3.43,13.91 0.3,1.09 3.08,12.36 c 0.45,1.74 0.54,1.89 2.7,1.89 l 6.42,0 0.69,1.55 -16.73,0 c -0.94,0 -1.44,0 -1.44,-1 0,-0.55 0.44,-0.55 1.39,-0.55 0.09,0 1.05,0 1.89,-0.09 0.89,-0.11 1.34,-0.16 1.34,-0.8 0,-0.2 -0.04,-0.36 -0.2,-0.95 z"
             inkscape:connector-curvature="0"
             style="fill:#000000;stroke-width:0" /><path
             id="path3557"
             d="m 499.18,401.82 0.17,0.17 0.16,0.17 0.17,0.16 0.17,0.17 0.18,0.17 0.09,0.09 0.1,0.1 0.1,0.09 0.11,0.1 0.11,0.1 0.11,0.11 0.13,0.11 0.13,0.11 0.13,0.12 0.15,0.13 0.15,0.13 0.16,0.14 0.17,0.14 0.17,0.15 0.19,0.16 0.2,0.16 0.21,0.17 0.22,0.18 0.23,0.19 0.25,0.2 0.25,0.21 0.27,0.21 c 0.74,0.6 3.35,2.69 4.36,3.66 2.13,2.09 3.46,3.87 3.46,4.29 0,0.41 -0.46,0.41 -0.6,0.41 -0.31,0 -0.42,-0.06 -0.59,-0.34 -1.08,-1.6 -1.81,-2.13 -2.64,-2.13 -0.42,0 -0.95,0.03 -2,1.05 -1.17,1.19 -1.94,1.42 -2.75,1.42 -2.78,0 -4.67,-3.03 -4.67,-4.06 0,-0.33 0.36,-0.42 0.59,-0.42 0.42,0 0.5,0.09 0.63,0.48 0.53,1.22 2.48,1.3 3.04,1.3 0.8,0 1.71,-0.22 2.19,-0.33 1.92,-0.41 2.16,-0.41 3.03,-0.41 -0.91,-0.95 -1.53,-1.57 -4.84,-4.22 -2.72,-2.15 -3.66,-3.03 -4.32,-3.73 -2.09,-2.05 -3.1,-3.58 -3.1,-3.91 0,-0.4 0.45,-0.4 0.59,-0.4 0.34,0 0.42,0.06 0.59,0.34 0.94,1.33 2.02,2.13 3.21,2.13 0.42,0 0.93,-0.03 1.87,-0.91 1.09,-1.05 1.78,-1.56 2.91,-1.56 3.72,0 6.06,4.22 6.06,5.39 0,0.42 -0.39,0.45 -0.59,0.45 -0.43,0 -0.5,-0.17 -0.63,-0.55 -0.67,-1.75 -2.72,-2.57 -4.44,-2.57 -0.79,0 -1.67,0.17 -2.53,0.37 -1.61,0.35 -1.89,0.35 -2.51,0.35 -0.08,0 -0.6,0 -0.8,-0.04 z"
             inkscape:connector-curvature="0"
             style="fill:#000000;stroke-width:0" /><path
             id="path3559"
             d="m 525.14,420.54 0,0.05 -0.01,0.06 0,0.05 -0.01,0.06 -0.01,0.05 -0.02,0.06 -0.02,0.05 -0.01,0.06 -0.03,0.06 -0.02,0.05 -0.03,0.06 -0.03,0.05 -0.03,0.06 -0.04,0.05 -0.04,0.05 -0.04,0.05 -0.04,0.05 -0.05,0.05 -0.05,0.04 -0.05,0.05 -0.06,0.04 -0.06,0.03 -0.06,0.04 -0.06,0.03 -0.07,0.03 -0.07,0.03 -0.08,0.02 -0.08,0.02 -0.08,0.01 -0.08,0.01 -0.09,0.01 -0.09,0 c -0.94,0 -1.95,-0.91 -1.95,-1.92 0,-0.59 0.45,-1.33 1.4,-1.33 1,0 1.96,0.99 1.96,1.92 z"
             inkscape:connector-curvature="0"
             style="fill:#000000;stroke-width:0" /><path
             id="path3561"
             d="m 518.03,402.84 -0.06,-0.17 -0.05,-0.17 -0.03,-0.08 -0.02,-0.09 -0.03,-0.08 -0.02,-0.09 -0.02,-0.09 -0.02,-0.09 -0.02,-0.1 -0.02,-0.09 -0.01,-0.1 0,-0.05 -0.01,-0.05 0,-0.06 0,-0.05 0,-0.05 0,-0.06 c 0,-1.64 1.38,-2.95 3.29,-2.95 3.49,0 5.03,4.79 5.03,5.33 0,0.45 -0.45,0.45 -0.56,0.45 -0.48,0 -0.53,-0.2 -0.67,-0.59 -0.8,-2.79 -2.33,-4.22 -3.69,-4.22 -0.7,0 -0.87,0.45 -0.87,1.22 0,0.79 0.25,1.46 0.56,2.23 0.34,0.94 0.73,1.87 1.11,2.78 0.31,0.84 1.58,4.02 1.72,4.44 0.09,0.34 0.2,0.76 0.2,1.11 0,1.64 -1.39,2.95 -3.31,2.95 -3.46,0 -5.05,-4.73 -5.05,-5.33 0,-0.45 0.49,-0.45 0.59,-0.45 0.49,0 0.52,0.17 0.63,0.56 0.9,3 2.44,4.25 3.72,4.25 0.56,0 0.87,-0.28 0.87,-1.22 0,-0.79 -0.2,-1.32 -1.07,-3.48 z"
             inkscape:connector-curvature="0"
             style="fill:#000000;stroke-width:0" /></g>      </g>
    </g>
  </g>
</svg>
